<?xml version="1.0" encoding="UTF-8" standalone="no"?>
<svg
   viewBox="0 0 512 512"
   version="1.1"
   id="svg1"
   sodipodi:docname="email.svg"
   inkscape:version="1.3 (0e150ed6c4, 2023-07-21)"
   xmlns:inkscape="http://www.inkscape.org/namespaces/inkscape"
   xmlns:sodipodi="http://sodipodi.sourceforge.net/DTD/sodipodi-0.dtd"
   xmlns="http://www.w3.org/2000/svg"
   xmlns:svg="http://www.w3.org/2000/svg">
  <defs
     id="defs1" />
  <sodipodi:namedview
     id="namedview1"
     pagecolor="#505050"
     bordercolor="#eeeeee"
     borderopacity="1"
     inkscape:showpageshadow="0"
     inkscape:pageopacity="0"
     inkscape:pagecheckerboard="0"
     inkscape:deskcolor="#505050"
     inkscape:zoom="0.75878906"
     inkscape:cx="71.166023"
     inkscape:cy="87.63964"
     inkscape:window-width="1920"
     inkscape:window-height="991"
     inkscape:window-x="1699"
     inkscape:window-y="-9"
     inkscape:window-maximized="1"
     inkscape:current-layer="svg1" />
  <!--! Font Awesome Pro 6.4.2 by @fontawesome - https://fontawesome.com License - https://fontawesome.com/license (Commercial License) Copyright 2023 Fonticons, Inc. -->
  <path
     d="M48 64C21.5 64 0 85.5 0 112c0 15.1 7.1 29.3 19.2 38.4L236.8 313.6c11.4 8.5 27 8.5 38.4 0L492.8 150.4c12.1-9.1 19.2-23.3 19.2-38.4c0-26.5-21.5-48-48-48H48zM0 176V384c0 35.3 28.7 64 64 64H448c35.3 0 64-28.7 64-64V176L294.4 339.2c-22.8 17.1-54 17.1-76.8 0L0 176z"
     id="path1"
     style="fill:#ffffff;fill-opacity:1" />
  <path
     style="opacity:0.8;fill:#ffffff;fill-opacity:1;stroke-width:0.658945"
     d="m 250.72844,319.16487 c -1.9933,-0.32928 -5.4215,-1.43894 -7.61821,-2.46592 -2.52291,-1.17946 -45.2751,-32.82912 -116.06992,-85.92708 C 6.2678888,140.18938 11.250021,144.16813 5.9957085,134.10501 -2.6322198,117.5807 -1.1893134,99.169669 9.9579387,83.548194 15.450272,75.851379 24.868105,69.36257 35.253539,66.119735 l 4.942085,-1.543158 H 256 471.80438 l 4.94208,1.543158 c 10.40878,3.250124 19.8033,9.731689 25.32897,17.475225 11.09383,15.546613 12.53182,34.03357 3.92886,50.51005 -5.25021,10.05527 -0.28086,6.08661 -121.027,96.6556 -71.90619,53.93523 -113.50234,84.72535 -116.07384,85.91966 -2.20423,1.02374 -5.93511,2.16871 -8.29084,2.54438 -4.81298,0.76752 -4.87852,0.76712 -9.88417,-0.0598 z"
     id="path19" />
  <path
     style="opacity:0.8;fill:#ffffff;fill-opacity:1;stroke-width:0.658945"
     d="M 56.669241,447.29084 C 29.831602,443.59807 9.1912962,425.11223 1.8245226,398.17091 0.78610642,394.37328 0.68188483,385.49862 0.50012437,285.39604 0.34075188,197.62338 0.46368763,176.86976 1.1398364,177.40192 11.290606,185.39105 220.02532,341.37718 222.94937,343.15878 c 19.70995,12.00914 46.39131,12.00914 66.10126,0 2.92405,-1.7816 211.65876,-157.76773 221.80953,-165.75686 0.67615,-0.53216 0.79909,20.22146 0.63971,107.99412 -0.18175,100.10258 -0.28598,108.97724 -1.3244,112.77487 -4.53647,16.59054 -13.85642,29.87041 -27.18947,38.74191 -6.59708,4.38955 -11.30775,6.51731 -19.41843,8.77109 l -6.25998,1.73951 -199.33076,0.0697 c -109.63191,0.0383 -200.220331,-0.0527 -201.307589,-0.2023 z"
     id="path20" />
</svg>
