<svg fill="#FFFFFF" xmlns="http://www.w3.org/2000/svg"  viewBox="0 0 16 16" width="64px" height="64px"><path d="M 8 0 C 3.582 0 0 3.582 0 8 C 0 12.418 3.582 16 8 16 C 12.418 16 16 12.418 16 8 C 16 3.582 12.418 0 8 0 z M 8.6542969 3.1972656 L 10.613281 3.5898438 C 10.738281 3.3718438 10.96675 3.2232656 11.21875 3.1972656 C 11.65675 3.1482656 12.052609 3.46625 12.099609 3.90625 C 12.146609 4.34625 11.828625 4.7400625 11.390625 4.7890625 C 10.950625 4.8360625 10.554813 4.518125 10.507812 4.078125 L 8.796875 3.71875 L 8.2773438 6.2148438 C 9.3773437 6.2388438 10.446422 6.5772656 11.357422 7.1972656 C 11.564422 7.0012656 11.837047 6.8820469 12.123047 6.8730469 C 12.771047 6.8520469 13.311937 7.356 13.335938 8 C 13.344937 8.449 13.091453 8.8644531 12.689453 9.0644531 C 12.696453 9.1824531 12.696453 9.2999687 12.689453 9.4179688 C 12.689453 11.210969 10.602391 12.666016 8.0253906 12.666016 C 5.4503906 12.666016 3.3613281 11.208969 3.3613281 9.4179688 C 3.3543281 9.2999687 3.3543281 9.1834531 3.3613281 9.0644531 C 3.2453281 9.0134531 3.1398281 8.9385156 3.0488281 8.8535156 C 2.5758281 8.4115156 2.5540938 7.6721719 2.9960938 7.2011719 C 3.4380938 6.7301719 4.1774844 6.7083906 4.6464844 7.1503906 C 5.5684844 6.5263906 6.6545781 6.1849688 7.7675781 6.1679688 L 8.3574219 3.390625 L 8.3574219 3.3867188 C 8.3864219 3.2507187 8.5222969 3.1662656 8.6542969 3.1972656 z M 6.1367188 8 C 5.6937187 8 5.3359375 8.3587812 5.3359375 8.8007812 C 5.3359375 9.2427813 5.6947187 9.5996094 6.1367188 9.5996094 C 6.5787188 9.5996094 6.9355469 9.2427813 6.9355469 8.8007812 C 6.9355469 8.3587812 6.5787187 8 6.1367188 8 z M 9.8417969 8 C 9.3997969 8 9.0410625 8.3587812 9.0390625 8.8007812 C 9.0390625 9.2427813 9.3997969 9.5996094 9.8417969 9.5996094 C 10.283797 9.5996094 10.642578 9.2427813 10.642578 8.8007812 C 10.642578 8.3587812 10.283797 8 9.8417969 8 z M 6.1972656 10.646484 C 6.1486406 10.646484 6.1000469 10.662813 6.0605469 10.695312 C 5.9675469 10.772312 5.9562969 10.933 6.0292969 11 C 6.3842969 11.328 7.012 11.615234 8 11.615234 C 8.988 11.615234 9.6157031 11.328 9.9707031 11 C 10.043703 10.933 10.032453 10.772312 9.9394531 10.695312 C 9.8614531 10.630313 9.7460625 10.630313 9.6640625 10.695312 C 9.1840625 11.048312 8.595 11.175781 8 11.175781 C 7.405 11.175781 6.8159375 11.048312 6.3359375 10.695312 C 6.2949375 10.662813 6.2458906 10.646484 6.1972656 10.646484 z"/></svg>